<svg width="138" height="81" viewBox="0 0 138 81" fill="none" xmlns="http://www.w3.org/2000/svg">
<g clip-path="url(#clip0_73_61)">
<mask id="mask0_73_61" style="mask-type:luminance" maskUnits="userSpaceOnUse" x="60" y="31" width="78" height="50">
<path d="M138 31H60V81H138V31Z" fill="white"/>
</mask>
<g mask="url(#mask0_73_61)">
<path d="M90.8 36.5L95.35 49.5V63.69C95.35 69.2433 93.8333 73.49 90.8 76.43C87.8133 79.37 83.6833 80.84 78.41 80.84C72.81 80.84 68.33 79.2767 64.97 76.15C61.6567 73.0233 60 68.52 60 62.64H73.58C73.6267 66.5133 75.05 68.45 77.85 68.45C80.37 68.45 81.63 66.8633 81.63 63.69V31L90.8 36.5ZM137.209 31V41.92H124.049V80.35H110.329V41.92H97.3089V31H137.209Z" fill="#00ADB5"/>
</g>
<path d="M94.5001 66L95.5001 49.5C95.5001 43.9289 94.6468 38.3736 91.615 35.4242C88.6299 32.4747 84.502 31 79.2314 31C73.6343 31 58.3323 31.4916 54.3342 31.4916C46.3383 35.4242 37.8429 43.4298 56.3333 43.4298L54.3343 43.3965C58.832 43.3965 75.8731 43.4298 78.6717 43.4298C81.1904 43.4298 82.4498 45.0216 82.4498 48.2051V78L94.5001 66Z" fill="#00ADB5"/>
<mask id="mask1_73_61" style="mask-type:luminance" maskUnits="userSpaceOnUse" x="0" y="0" width="54" height="74">
<path d="M54 0H0V74H54V0Z" fill="white"/>
</mask>
<g mask="url(#mask1_73_61)">
<path d="M22.4645 33.6953C20.5118 35.4547 20.5118 38.3072 22.4645 40.0667C22.4645 40.0667 41.0474 56.4587 43 58.2181C44.9526 59.9774 50 58.2181 50 58.2181C50 58.2181 53.4527 53.6702 51.5 51.9108C49.5473 50.1514 33.0711 36.881 33.0711 36.881L48.5 22.1761C50.4527 20.4167 50.4527 18.0788 48.5 16.3194C46.5474 14.56 42.9526 14.5603 41 16.3197L22.4645 33.6953ZM75 36.881L62.5 31L26 32.3758V36.881V41.3861L58.5 44L75 36.881Z" fill="#00ADB5"/>
</g>
</g>
<defs>
<clipPath id="clip0_73_61">
<rect width="138" height="81" fill="white"/>
</clipPath>
</defs>
</svg>
